# xmcd
#
# Track frame offsets: 
#        150
#        13987
#        26581
#        40234
#        54967
#        69758
#        83031
#        98161
#        112707
#        126811
#        139368
#        154224
#        168193
#        184179
#        198825
#        212882
#        227257
#        241549
#        255834
#        271146
#
# Disc length: 3808 seconds
#
# Revision: 1
# Processed by: cddbd v1.5.2PL0 Copyright (c) Steve Scherf et al.
# Submitted via: ExactAudioCopy v1.3
#
DISCID=f50ede14
DTITLE=The Mississippi Sheiks - Sitting On Top Of The World
DYEAR=2008
DGENRE=Blues
TTITLE0=Sitting On Top Of The World
TTITLE1=Grinding Old Fool
TTITLE2=Still I'm Traveling On
TTITLE3=I've Got Blood In My Eyes For You
TTITLE4=It´S Done Got Wet
TTITLE5=Jail Bird Love Song
TTITLE6=The World Is Going Wrong
TTITLE7=The Sheik Waltz
TTITLE8=Baby Keeps Stealin' Loving' On Me
TTITLE9=What's The Name Of That Thing
TTITLE10=I'll Be Gone, Long Gone
TTITLE11=Sales Tax
TTITLE12=Stop And Listen Blues
TTITLE13=Lonely One In This Town
TTITLE14=Jake Leg Blues
TTITLE15=The Jazz Fiddler
TTITLE16=Lazy Lazy River
TTITLE17=Somebody's Got To Help You
TTITLE18=Sweet Maggie
TTITLE19=Tell Me What The Cats Fight About
EXTD=YEAR: 2008
EXTT0=
EXTT1=
EXTT2=
EXTT3=
EXTT4=
EXTT5=
EXTT6=
EXTT7=
EXTT8=
EXTT9=
EXTT10=
EXTT11=
EXTT12=
EXTT13=
EXTT14=
EXTT15=
EXTT16=
EXTT17=
EXTT18=
EXTT19=
PLAYORDER=
